# xmcd
#
# Track frame offsets:
#	150
#	12120
#	29207
#	42467
#	51662
#	66345
#	85485
#	96752
#	110752
#	123452
#	135345
#	167720
#	179265
#	192442
#	208462
#
# Disc length: 2932 seconds
#
# Revision: 1
# Processed by: cddbd v1.4PL0 Copyright (c) Steve Scherf et al.
# Submitted via: audiograbber 1.82.01
#
DISCID=e90b720f
DTITLE=Various Artist - A Motown Christmas Volume 2
DYEAR=2001
DGENRE=Xmas
TTITLE0=Supremes - Wont Be Long Before Christmas
TTITLE1=Temptations - Love Comes With Christmas
TTITLE2=Marvin Gaye - Purple Snowflakes
TTITLE3=Funk Brothers - Winter Wonderland
TTITLE4=Jackson 5 - Up On The House Top
TTITLE5=Temptations - The Little Drummer Boy
TTITLE6=Supremes - Oh Little Town Of Bethlehem
TTITLE7=Miracles - White Christmas
TTITLE8=Kim Weston - Wish You A Merry Christmas
TTITLE9=Marvin Gaye - The Christmas Song
TTITLE10=Twistin' Kings - Xmas Twist
TTITLE11=Jackson 5 - Rudolph The Red Nose Reindeer
TTITLE12=Supremes - Oh Holy Night
TTITLE13=Temptations - Someday At Christmas
TTITLE14=Motown Artists - Seasons Greetings
EXTD=YEAR: 2001 ID3G:   0
EXTT0=
EXTT1=
EXTT2=
EXTT3=
EXTT4=
EXTT5=
EXTT6=
EXTT7=
EXTT8=
EXTT9=
EXTT10=
EXTT11=
EXTT12=
EXTT13=
EXTT14=
PLAYORDER=
